<?xml version="1.0" encoding="UTF-8" standalone="no"?>
<!-- Generator: Adobe Illustrator 16.0.0, SVG Export Plug-In . SVG Version: 6.00 Build 0)  -->

<svg
   xmlns:dc="http://purl.org/dc/elements/1.1/"
   xmlns:cc="http://creativecommons.org/ns#"
   xmlns:rdf="http://www.w3.org/1999/02/22-rdf-syntax-ns#"
   xmlns:svg="http://www.w3.org/2000/svg"
   xmlns="http://www.w3.org/2000/svg"
   xmlns:sodipodi="http://sodipodi.sourceforge.net/DTD/sodipodi-0.dtd"
   xmlns:inkscape="http://www.inkscape.org/namespaces/inkscape"
   version="1.1"
   id="Capa_1"
   x="0px"
   y="0px"
   width="70"
   height="54.43726"
   viewBox="0 0 69.999998 54.437258"
   xml:space="preserve"
   sodipodi:docname="auto_rot.svg"
   inkscape:version="0.92.3 (2405546, 2018-03-11)"
   inkscape:export-filename="/home/oliver/src/kivy/ConsumptionMonitor/auto.png"
   inkscape:export-xdpi="96"
   inkscape:export-ydpi="96"><metadata
   id="metadata41"><rdf:RDF><cc:Work
       rdf:about=""><dc:format>image/svg+xml</dc:format><dc:type
         rdf:resource="http://purl.org/dc/dcmitype/StillImage" /><dc:title></dc:title></cc:Work></rdf:RDF></metadata><defs
   id="defs39">
	
</defs><sodipodi:namedview
   pagecolor="#ffffff"
   bordercolor="#666666"
   borderopacity="1"
   objecttolerance="10"
   gridtolerance="10"
   guidetolerance="10"
   inkscape:pageopacity="0"
   inkscape:pageshadow="2"
   inkscape:window-width="1920"
   inkscape:window-height="1024"
   id="namedview37"
   showgrid="false"
   inkscape:zoom="8.3925364"
   inkscape:cx="-8.0477507"
   inkscape:cy="38.146667"
   inkscape:window-x="0"
   inkscape:window-y="1080"
   inkscape:window-maximized="1"
   inkscape:current-layer="Capa_1" />
<g
   id="g960"
   transform="matrix(0.86112759,0,0,0.86112759,0.59576745,-7.2922348)"><path
     style="fill:#ff0002;fill-opacity:1"
     d="m 15.532,56.706 c -3.977,0 -7.213,-3.242 -7.213,-7.197 0,-3.998 3.236,-7.224 7.213,-7.224 3.987,0 7.226,3.226 7.226,7.224 0,3.954 -3.239,7.197 -7.226,7.197 z m 0,-11.102 c -2.128,0 -3.876,1.75 -3.876,3.883 0,2.129 1.748,3.879 3.876,3.879 2.141,0 3.886,-1.75 3.886,-3.879 0,-2.133 -1.745,-3.883 -3.886,-3.883 z m 48.605,11.102 c -3.987,0 -7.219,-3.242 -7.219,-7.197 0,-3.998 3.231,-7.224 7.219,-7.224 3.977,0 7.208,3.226 7.208,7.224 0,3.954 -3.232,7.197 -7.208,7.197 z m 0,-11.102 c -2.144,0 -3.895,1.75 -3.895,3.883 0,2.129 1.751,3.879 3.895,3.879 2.139,0 3.884,-1.75 3.884,-3.879 0,-2.133 -1.746,-3.883 -3.884,-3.883 z m 14.001,-1.513 c 0,-7.011 -4.365,-7.842 -4.365,-7.842 -6.426,-0.912 -17.496,-1.38 -17.496,-1.38 -1.016,-1.766 -5.707,-12.039 -8.44,-12.039 -0.911,0 -20.508,0 -23.975,0 -3.472,0 -9.167,10.024 -10.413,12.285 0,0 -4.36,0.758 -6.416,1.219 -1.142,0.265 -4.301,0.324 -4.301,9.155 H 0 v 3.997 h 6.654 c 0,-4.908 3.982,-8.885 8.878,-8.885 4.914,0 8.886,3.977 8.886,8.885 h 30.827 c 0,-4.908 3.967,-8.885 8.892,-8.885 4.898,0 8.875,3.977 8.875,8.885 h 6.524 V 44.09 h -1.398 z m -42.549,-9.9 H 21.751 c 1.872,-5.831 5.339,-9.994 6.801,-9.994 1.841,0 7.037,0 7.037,0 z m 2.579,0 v -9.994 c 0,0 7.141,0 8.974,0 1.854,0 5.893,8.461 7.032,10.625 z"
     id="path2"
     inkscape:connector-curvature="0" /></g>
<g
   id="g6"
   transform="translate(0,-25.098742)">
</g>
<g
   id="g8"
   transform="translate(0,-25.098742)">
</g>
<g
   id="g10"
   transform="translate(0,-25.098742)">
</g>
<g
   id="g12"
   transform="translate(0,-25.098742)">
</g>
<g
   id="g14"
   transform="translate(0,-25.098742)">
</g>
<g
   id="g16"
   transform="translate(0,-25.098742)">
</g>
<g
   id="g18"
   transform="translate(0,-25.098742)">
</g>
<g
   id="g20"
   transform="translate(0,-25.098742)">
</g>
<g
   id="g22"
   transform="translate(0,-25.098742)">
</g>
<g
   id="g24"
   transform="translate(0,-25.098742)">
</g>
<g
   id="g26"
   transform="translate(0,-25.098742)">
</g>
<g
   id="g28"
   transform="translate(0,-25.098742)">
</g>
<g
   id="g30"
   transform="translate(0,-25.098742)">
</g>
<g
   id="g32"
   transform="translate(0,-25.098742)">
</g>
<g
   id="g34"
   transform="translate(0,-25.098742)">
</g>
</svg>