<?xml version="1.0" encoding="UTF-8" standalone="no"?>
<!-- Generator: Adobe Illustrator 16.0.0, SVG Export Plug-In . SVG Version: 6.00 Build 0)  -->

<svg
   xmlns:dc="http://purl.org/dc/elements/1.1/"
   xmlns:cc="http://creativecommons.org/ns#"
   xmlns:rdf="http://www.w3.org/1999/02/22-rdf-syntax-ns#"
   xmlns:svg="http://www.w3.org/2000/svg"
   xmlns="http://www.w3.org/2000/svg"
   xmlns:sodipodi="http://sodipodi.sourceforge.net/DTD/sodipodi-0.dtd"
   xmlns:inkscape="http://www.inkscape.org/namespaces/inkscape"
   version="1.1"
   id="Capa_1"
   x="0px"
   y="0px"
   width="70"
   height="54.43726"
   viewBox="0 0 69.999998 54.437258"
   xml:space="preserve"
   sodipodi:docname="auto_gruen.svg"
   inkscape:version="0.92.3 (2405546, 2018-03-11)"
   inkscape:export-filename="/home/oliver/src/kivy/ConsumptionMonitor/auto_gruen.png"
   inkscape:export-xdpi="96"
   inkscape:export-ydpi="96"><metadata
   id="metadata41"><rdf:RDF><cc:Work
       rdf:about=""><dc:format>image/svg+xml</dc:format><dc:type
         rdf:resource="http://purl.org/dc/dcmitype/StillImage" /><dc:title /></cc:Work></rdf:RDF></metadata><defs
   id="defs39">
	
</defs><sodipodi:namedview
   pagecolor="#ffffff"
   bordercolor="#666666"
   borderopacity="1"
   objecttolerance="10"
   gridtolerance="10"
   guidetolerance="10"
   inkscape:pageopacity="0"
   inkscape:pageshadow="2"
   inkscape:window-width="1920"
   inkscape:window-height="1024"
   id="namedview37"
   showgrid="false"
   inkscape:zoom="8.3925364"
   inkscape:cx="7.9779333"
   inkscape:cy="38.146667"
   inkscape:window-x="0"
   inkscape:window-y="1080"
   inkscape:window-maximized="1"
   inkscape:current-layer="Capa_1" />
<path
   inkscape:connector-curvature="0"
   id="path2"
   d="m 13.970801,41.538866 c -3.424704,0 -6.2113131,-2.791775 -6.2113131,-6.197535 0,-3.442788 2.7866091,-6.220786 6.2113131,-6.220786 3.433316,0 6.222508,2.777998 6.222508,6.220786 0,3.404899 -2.789192,6.197535 -6.222508,6.197535 z m 0,-9.560238 c -1.832479,0 -3.33773,1.506973 -3.33773,3.343758 0,1.833341 1.505251,3.340314 3.33773,3.340314 1.843674,0 3.346342,-1.506973 3.346342,-3.340314 0,-1.836785 -1.502668,-3.343758 -3.346342,-3.343758 z m 41.855107,9.560238 c -3.433316,0 -6.21648,-2.791775 -6.21648,-6.197535 0,-3.442788 2.782303,-6.220786 6.21648,-6.220786 3.424704,0 6.207007,2.777998 6.207007,6.220786 0,3.404899 -2.783164,6.197535 -6.207007,6.197535 z m 0,-9.560238 c -1.846258,0 -3.354092,1.506973 -3.354092,3.343758 0,1.833341 1.507834,3.340314 3.354092,3.340314 1.841952,0 3.344619,-1.506973 3.344619,-3.340314 0,-1.836785 -1.503529,-3.343758 -3.344619,-3.343758 z m 12.056647,-1.302886 c 0,-6.037366 -3.758822,-6.752963 -3.758822,-6.752963 C 58.590127,23.137431 49.057445,22.734423 49.057445,22.734423 48.182539,21.213672 44.14299,12.367308 41.789528,12.367308 c -0.784487,0 -17.660005,0 -20.645534,0 -2.989835,0 -7.893957,8.631943 -8.966922,10.578953 0,0 -3.7545159,0.652734 -5.5249942,1.049714 C 5.6686701,24.224174 2.948368,24.27498 2.948368,31.879598 H 0.59576745 v 3.441927 H 6.3257104 c 0,-4.226414 3.4290101,-7.651119 7.6450906,-7.651119 4.231581,0 7.65198,3.424705 7.65198,7.651119 h 26.54598 c 0,-4.226414 3.416093,-7.651119 7.657147,-7.651119 4.217803,0 7.642507,3.424705 7.642507,7.651119 h 5.617996 V 30.674881 H 67.882555 Z M 31.242437,22.150579 H 19.326154 c 1.612031,-5.021235 4.59756,-8.60611 5.856528,-8.60611 1.585336,0 6.059755,0 6.059755,0 z m 2.220848,0 v -8.60611 c 0,0 6.149312,0 7.727759,0 1.596531,0 5.074625,7.286001 6.05545,9.149481 z"
   style="fill:#00ff00;fill-opacity:1;stroke-width:0.86112761;stroke:#008000" />
<g
   id="g6"
   transform="translate(0,-25.098742)">
</g>
<g
   id="g8"
   transform="translate(0,-25.098742)">
</g>
<g
   id="g10"
   transform="translate(0,-25.098742)">
</g>
<g
   id="g12"
   transform="translate(0,-25.098742)">
</g>
<g
   id="g14"
   transform="translate(0,-25.098742)">
</g>
<g
   id="g16"
   transform="translate(0,-25.098742)">
</g>
<g
   id="g18"
   transform="translate(0,-25.098742)">
</g>
<g
   id="g20"
   transform="translate(0,-25.098742)">
</g>
<g
   id="g22"
   transform="translate(0,-25.098742)">
</g>
<g
   id="g24"
   transform="translate(0,-25.098742)">
</g>
<g
   id="g26"
   transform="translate(0,-25.098742)">
</g>
<g
   id="g28"
   transform="translate(0,-25.098742)">
</g>
<g
   id="g30"
   transform="translate(0,-25.098742)">
</g>
<g
   id="g32"
   transform="translate(0,-25.098742)">
</g>
<g
   id="g34"
   transform="translate(0,-25.098742)">
</g>
</svg>